# xmcd CD database file
#
# Track frame offsets:
#	150
#	16652
#	33757
#	50387
#	67939
#	84186
#	99799
#	118632
#	134653
#	151420
#	167884
#	184311
#
# Disc length: 2654 seconds
#
# Revision: 2
# Processed by: cddbd v1.5.1PL0 Copyright (c) Steve Scherf et al.
# Submitted via: jetAudio 5
#
DISCID=8b0a5c0c
DTITLE=Yerba Brava - 100% Villero
DYEAR=2001
DGENRE=Latin
TTITLE0=De que te la Das
TTITLE1=Los de negro
TTITLE2=Hijo de yuta
TTITLE3=Chicos del anden
TTITLE4=Saltando
TTITLE5=Sonido Villero
TTITLE6=Sos mi pasion
TTITLE7=Aguanten
TTITLE8=El fuerte
TTITLE9=A la celda
TTITLE10=Mafia Rosa
TTITLE11=La navidad el pibe
EXTD=
EXTT0=
EXTT1=
EXTT2=
EXTT3=
EXTT4=
EXTT5=
EXTT6=
EXTT7=
EXTT8=
EXTT9=
EXTT10=
EXTT11=
PLAYORDER=
